<?xml version="1.0" standalone="no"?>
<!DOCTYPE svg PUBLIC "-//W3C//DTD SVG 20010904//EN"
 "http://www.w3.org/TR/2001/REC-SVG-20010904/DTD/svg10.dtd">
<svg version="1.0" xmlns="http://www.w3.org/2000/svg"
 width="300.000000pt" height="300.000000pt" viewBox="0 0 300.000000 300.000000"
 preserveAspectRatio="xMidYMid meet">
<metadata>
Created by potrace 1.11, written by Peter Selinger 2001-2013
</metadata>
<g transform="translate(0.000000,300.000000) scale(0.100000,-0.100000)"
fill="#000000" stroke="none">
<path d="M0 1500 l0 -1500 1500 0 1500 0 0 1500 0 1500 -1500 0 -1500 0 0
-1500z m1840 403 c0 -479 -5 -529 -57 -624 -36 -67 -108 -130 -180 -159 -71
-28 -238 -39 -324 -21 -79 17 -186 71 -237 121 -37 36 -41 44 -30 58 7 9 42
52 77 94 l64 78 47 -44 c71 -66 104 -80 186 -81 62 0 75 3 107 28 62 47 67 82
67 444 l0 314 -345 -3 -345 -3 -27 -28 -28 -27 -5 -223 c-6 -247 -11 -267 -78
-309 l-34 -21 31 -15 c17 -8 41 -31 53 -51 22 -34 23 -50 28 -258 l5 -223 28
-27 27 -28 630 0 630 0 27 28 28 27 5 223 c5 209 6 224 28 259 13 20 36 43 52
50 17 7 30 15 30 18 0 3 -15 12 -33 21 -65 32 -71 58 -77 306 -5 222 -5 223
-30 248 -19 18 -41 27 -78 32 l-52 6 0 109 0 110 113 -3 c103 -4 119 -7 172
-34 65 -33 117 -91 136 -153 6 -21 14 -138 18 -269 4 -168 10 -236 19 -245 7
-7 36 -15 65 -18 l52 -5 0 -105 0 -105 -52 -5 c-29 -3 -58 -11 -65 -18 -9 -9
-15 -77 -19 -245 -4 -134 -11 -248 -18 -269 -33 -103 -131 -173 -263 -189
-101 -11 -1274 -11 -1376 1 -135 15 -230 83 -263 188 -7 21 -14 135 -18 269
-4 168 -10 236 -19 245 -7 7 -36 15 -65 18 l-52 5 0 105 0 105 52 5 c29 3 58
11 65 18 9 9 15 77 19 245 4 134 11 248 18 269 32 100 130 174 249 188 37 4
286 8 555 9 l487 1 0 -437z"/>
</g>
</svg>
