<?xml version="1.0" standalone="no"?>
<!DOCTYPE svg PUBLIC "-//W3C//DTD SVG 20010904//EN"
 "http://www.w3.org/TR/2001/REC-SVG-20010904/DTD/svg10.dtd">
<svg version="1.0" xmlns="http://www.w3.org/2000/svg"
 width="500.000000pt" height="500.000000pt" viewBox="0 0 500.000000 500.000000"
 preserveAspectRatio="xMidYMid meet">
<metadata>
Created by potrace 1.11, written by Peter Selinger 2001-2013
</metadata>
<g transform="translate(0.000000,500.000000) scale(0.100000,-0.100000)"
fill="#000000" stroke="none">
<path d="M0 2500 l0 -2500 2500 0 2500 0 0 2500 0 2500 -2500 0 -2500 0 0
-2500z m2190 1425 l0 -125 -110 0 -110 0 0 125 0 125 110 0 110 0 0 -125z
m925 -282 l70 -18 3 -92 c1 -51 1 -93 -2 -93 -2 0 -35 14 -72 32 -88 41 -217
51 -274 21 -31 -16 -35 -23 -35 -57 0 -51 24 -68 145 -101 140 -39 178 -54
218 -89 52 -45 72 -97 72 -186 0 -119 -35 -176 -135 -222 -46 -21 -63 -23
-205 -22 -119 1 -171 5 -225 20 l-70 19 -3 94 c-3 107 -12 101 96 56 123 -51
261 -57 317 -13 22 17 26 27 23 61 -4 55 -40 79 -161 107 -206 48 -287 119
-287 254 0 129 85 220 229 247 65 12 213 3 296 -18z m-927 -445 c-4 -383 -8
-461 -21 -504 -24 -72 -56 -115 -107 -144 -43 -24 -55 -25 -222 -28 l-178 -4
0 80 0 80 119 4 c110 3 121 5 145 27 14 14 30 41 36 60 6 21 10 181 10 374 l0
337 -110 0 -110 0 0 85 0 85 221 0 221 0 -4 -452z m-720 325 l-3 -67 -300
-113 c-165 -62 -304 -114 -309 -116 -5 -1 130 -54 300 -117 l309 -115 3 -69
c2 -53 0 -67 -10 -63 -52 21 -619 245 -680 269 l-78 29 0 64 0 63 223 87 c122
48 292 116 377 150 85 35 159 64 163 64 4 1 7 -29 5 -66z m2352 -78 c162 -64
330 -130 373 -147 l77 -29 0 -64 0 -64 -77 -29 c-62 -24 -629 -248 -681 -269
-10 -4 -12 10 -10 63 l3 69 309 115 c170 63 305 116 300 117 -5 2 -144 54
-309 116 l-300 113 -3 68 c-2 53 0 67 10 63 7 -3 146 -58 308 -122z m-2542
-1173 l42 -22 0 -76 0 -75 -31 22 c-66 47 -182 62 -271 35 -70 -21 -114 -60
-150 -134 l-33 -67 -3 -287 -3 -288 -75 0 -74 0 0 450 0 450 75 0 75 0 0 -82
1 -83 19 36 c25 48 101 114 153 133 64 24 219 17 275 -12z m740 13 c104 -31
184 -119 225 -249 32 -103 32 -309 0 -412 -42 -132 -121 -218 -230 -250 -84
-25 -231 -16 -304 18 -143 65 -209 204 -209 438 0 257 81 401 255 456 56 18
201 17 263 -1z m1029 -14 c58 -26 130 -96 162 -159 34 -67 51 -158 51 -282 0
-234 -66 -373 -209 -438 -73 -34 -220 -43 -304 -18 -109 32 -188 118 -230 250
-32 103 -32 309 0 412 40 127 112 209 215 246 77 27 242 21 315 -11z m800 9
c18 -10 40 -32 49 -47 10 -15 19 -30 21 -32 2 -3 17 12 34 32 42 51 77 67 147
67 110 0 162 -64 182 -220 5 -46 10 -223 10 -392 l0 -308 -64 0 -63 0 -6 348
c-3 215 -9 361 -16 384 -30 96 -151 89 -182 -10 -7 -23 -13 -166 -16 -379 l-5
-343 -64 0 -64 0 0 324 c0 356 -6 419 -46 454 -60 53 -137 15 -154 -77 -6 -29
-10 -199 -10 -377 l0 -324 -65 0 -65 0 0 450 0 450 65 0 65 0 0 -36 0 -37 22
28 c12 15 35 36 52 46 42 26 130 26 173 -1z"/>
<path d="M1795 2161 c-53 -24 -99 -77 -121 -143 -15 -41 -19 -82 -19 -188 0
-154 16 -217 69 -277 91 -104 256 -95 331 18 40 58 58 140 58 259 0 123 -17
198 -56 257 -57 86 -168 117 -262 74z"/>
<path d="M2780 2158 c-91 -46 -133 -150 -133 -328 0 -123 17 -198 56 -257 77
-115 242 -125 333 -20 53 60 69 123 69 277 0 154 -16 217 -69 277 -63 73 -171
94 -256 51z"/>
</g>
</svg>
